# xmcd CD database file
#
# Track frame offsets:
#	150
#	37020
#	54759
#	73755
#	85595
#	106194
#	128331
#	150029
#	174201
#	200292
#	216965
#	242194
#	257767
#	277890
#	308515
#
# Disc length: 4436 seconds
#
# Revision: 0
# Processed by: cddbd v1.5.2PL0 Copyright (c) Steve Scherf et al.
# Submitted via: CDex 1.51
#
DISCID=b311520f
DTITLE=Various Artist - Sound of Jazz FM 2011 [CD2)
DYEAR=2011
DGENRE=Jazz
TTITLE0=Shuya Okino and Natasha Daya - Still In Love
TTITLE1=Gil Scott-Heron and Brian Jackson - It's Your World
TTITLE2=Flora Purim - Vera Cruz (Empty Faces)
TTITLE3=Donny Hathaway - No Other One But You (1974 Demo)
TTITLE4=Patrice Rushen - Arrival
TTITLE5=Bobby Lyle and Will Downing - Feel Like Making Love
TTITLE6=Maydie Myles - Throw It Away
TTITLE7=Bobby Womack - Caught Up In The Middle
TTITLE8=Imaani - Found My Light (Reep People Vocal Mix)
TTITLE9=Rahsaan Patterson - Easier Said Than Done
TTITLE10=Amy Keys - Has It Come To This
TTITLE11=Luther Vandross - Take You Out
TTITLE12=Roy Ayers - Virgo
TTITLE13=Dizzy Gillespie - Unicorn
TTITLE14=Stanley Turrentine - You'll Never Find Another Love Like Mine
EXTD=YEAR: 2011
EXTT0=
EXTT1=
EXTT2=
EXTT3=
EXTT4=
EXTT5=
EXTT6=
EXTT7=
EXTT8=
EXTT9=
EXTT10=
EXTT11=
EXTT12=
EXTT13=
EXTT14=
PLAYORDER=
